<svg width="336" height="522" viewBox="0 0 336 522" fill="none" xmlns="http://www.w3.org/2000/svg">
<path d="M222.598 184.047C222.598 184.047 241.376 224.126 241.376 226.242C241.376 228.358 224.714 237.421 221.54 239.325C219.078 240.727 216.541 241.993 213.94 243.116L215.845 261.683C215.845 261.683 244.533 255.141 256.558 248.6C268.583 242.058 268.16 234.67 265.374 223.703C262.588 212.735 244.057 170.347 244.057 170.347L222.598 184.047Z" fill="#E1E1E6"/>
<g style="mix-blend-mode:multiply" opacity="0.5">
<path d="M256.505 248.6C268.53 242.058 268.107 234.67 265.321 223.703C262.535 212.735 244.004 170.347 244.004 170.347L241.006 172.251L240.054 174.014C240.054 174.014 257.351 216.473 258.392 230.614C259.097 240.118 239.966 251.967 227.323 258.738C236.704 256.252 249.47 252.426 256.505 248.6Z" fill="#BBBBBF"/>
</g>
<path d="M222.598 184.047C222.598 184.047 241.376 224.126 241.376 226.242C241.376 228.358 224.714 237.421 221.54 239.325C219.078 240.727 216.541 241.993 213.94 243.116L215.845 261.683C215.845 261.683 244.533 255.141 256.558 248.6C268.583 242.058 268.16 234.67 265.374 223.703C262.588 212.735 244.057 170.347 244.057 170.347L222.598 184.047Z" stroke="#263238" stroke-linecap="round" stroke-linejoin="round"/>
<path d="M87.1104 175.196C87.1104 175.196 73.41 225.395 73.0044 234.264C72.5989 243.134 100.211 260.625 101.216 261.683C102.221 262.741 99.647 231.179 99.647 231.179L109.01 185.334L87.1104 175.196Z" fill="#E1E1E6"/>
<g style="mix-blend-mode:multiply" opacity="0.5">
<path d="M93.3875 179.304L93.0878 177.946L87.1104 175.196C87.1104 175.196 73.41 225.395 73.0044 234.264C72.5989 243.134 100.211 260.625 101.216 261.683C101.622 262.106 101.463 257.381 101.128 251.544C92.9114 244.579 81.1153 234.776 79.74 230.65" fill="#BBBBBF"/>
</g>
<path d="M87.1104 175.196C87.1104 175.196 73.41 225.395 73.0044 234.264C72.5989 243.134 100.211 260.625 101.216 261.683C102.221 262.741 99.647 231.179 99.647 231.179L109.01 185.334L87.1104 175.196Z" stroke="#263238" stroke-linecap="round" stroke-linejoin="round"/>
<path d="M151.451 124.767C151.451 124.767 146.161 128.576 135.846 128.999C125.531 129.422 125.038 121.946 112.219 121.946C96.6847 121.946 77.2009 171.087 77.2009 171.087C77.2009 171.087 86.8987 180.591 96.4026 184.594C101.66 186.897 107.188 188.526 112.854 189.443L114.335 221.728H218.966L220.217 189.443L252.926 168.231C252.926 168.231 236.88 139.543 229.087 128.787C221.293 118.031 208.192 122.034 204.19 124.767C200.187 127.5 188.32 128.152 183.948 127.518C178.243 126.255 172.605 124.707 167.056 122.88C167.056 122.88 160.32 117.273 151.451 124.767Z" fill="#EBA417" stroke="#263238" stroke-linecap="round" stroke-linejoin="round"/>
<path fill-rule="evenodd" clip-rule="evenodd" d="M113.5 189.5L114.453 136L102 186.3L113.5 189.5Z" fill="#BC8312"/>
<path fill-rule="evenodd" clip-rule="evenodd" d="M206.192 221.862V159C206.192 143.05 192.708 138.107 174.723 131.514C168.465 129.22 161.662 126.727 154.692 123.5L154 123.363C161.833 118.258 167.547 123.015 167.547 123.015C173.097 124.842 178.734 126.39 184.439 127.652C188.812 128.287 200.678 127.634 204.681 124.901C208.684 122.168 221.784 118.166 229.578 128.922C237.371 139.677 253.417 168.365 253.417 168.365L220.709 189.577L219.457 221.862H206.192Z" fill="#BC8312"/>
<path d="M113.912 136.158L113.489 189.743" stroke="#263238" stroke-width="0.5" stroke-linecap="round" stroke-linejoin="round"/>
<path d="M117.703 141.024C117.703 141.024 119.184 167.173 124.756 181.737" stroke="#263238" stroke-width="0.5" stroke-linecap="round" stroke-linejoin="round"/>
<path d="M125.725 183.836C126.929 187.39 128.408 190.845 130.151 194.168" stroke="#263238" stroke-width="0.5" stroke-linecap="round" stroke-linejoin="round"/>
<path d="M121.07 138.062C123.072 147.57 125.898 156.886 129.516 165.903" stroke="#263238" stroke-width="0.5" stroke-linecap="round" stroke-linejoin="round"/>
<path d="M212.019 142.699C212.019 142.699 206.958 163.382 202.515 172.674" stroke="#263238" stroke-width="0.5" stroke-linecap="round" stroke-linejoin="round"/>
<path d="M220.217 189.531L220.006 147.76" stroke="#263238" stroke-width="0.5" stroke-linecap="round" stroke-linejoin="round"/>
<path d="M217.908 148.606C217.908 148.606 214.099 175.055 204.824 188.896" stroke="#263238" stroke-width="0.5" stroke-linecap="round" stroke-linejoin="round"/>
<path d="M213.27 183.624C213.27 183.624 209.039 191.647 206.094 195.861" stroke="#263238" stroke-width="0.5" stroke-linecap="round" stroke-linejoin="round"/>
<path d="M145.544 127.941C145.544 127.941 148.506 146.085 152.721 155.359C156.935 164.634 164.323 166.538 170.653 163.805C176.983 161.072 181.62 147.548 181.232 130.304" stroke="#263238" stroke-width="0.5" stroke-linecap="round" stroke-linejoin="round"/>
<path d="M130.574 89.9606C130.574 89.9606 126.554 83.0135 123.398 86.5928C120.242 90.1722 125.937 98.4066 129.093 101.14C132.249 103.873 134.577 102.198 134.383 99.2529C134.189 96.3083 130.574 89.9606 130.574 89.9606Z" fill="#E1E1E6" stroke="#263238" stroke-linecap="round" stroke-linejoin="round"/>
<path d="M130.574 89.9606C130.574 89.9606 126.554 83.0135 123.398 86.5928C120.242 90.1722 125.937 98.4066 129.093 101.14C132.249 103.873 134.577 102.198 134.383 99.2529C134.189 96.3083 130.574 89.9606 130.574 89.9606Z" stroke="#263238" stroke-linecap="round" stroke-linejoin="round"/>
<path d="M194.386 89.9606C194.386 89.9606 198.389 83.0135 201.562 86.5928C204.736 90.1722 199.023 98.4066 195.867 101.14C192.711 103.873 190.366 102.198 190.577 99.2529C190.789 96.3083 194.386 89.9606 194.386 89.9606Z" fill="#E1E1E6" stroke="#263238" stroke-linecap="round" stroke-linejoin="round"/>
<path d="M194.386 89.9606C194.386 89.9606 198.389 83.0135 201.562 86.5928C204.736 90.1722 199.023 98.4066 195.867 101.14C192.711 103.873 190.366 102.198 190.577 99.2529C190.789 96.3083 194.386 89.9606 194.386 89.9606Z" stroke="#263238" stroke-linecap="round" stroke-linejoin="round"/>
<path d="M149.547 123.304C151.538 132.307 154.076 141.181 157.146 149.876C160.955 159.362 168.114 159.362 171.076 153.243C174.038 147.125 175.925 124.326 175.925 124.326C175.925 124.326 156.088 127.094 149.547 123.304Z" fill="#E1E1E6" stroke="#263238" stroke-linecap="round" stroke-linejoin="round"/>
<path d="M130.997 92.2881C130.997 92.2881 136.481 111.684 146.867 123.092C157.252 134.5 160.973 137.198 166.492 136.369C172.01 135.54 177.882 128.364 186.099 113.447C194.315 98.53 194.915 87.0866 195.603 86.0286C196.29 84.9707 193.839 63.8823 182.096 54.8016C170.353 45.7209 157.199 41.736 145.809 51.6454C134.418 61.5548 127.189 77.7237 130.997 92.2881Z" fill="#E1E1E6"/>
<path d="M130.997 92.2881C130.997 92.2881 136.481 111.684 146.867 123.092C157.252 134.5 160.973 137.198 166.492 136.369C172.01 135.54 177.882 128.364 186.099 113.447C194.315 98.53 194.915 87.0866 195.603 86.0286C196.29 84.9707 193.839 63.8823 182.096 54.8016C170.353 45.7209 157.199 41.736 145.809 51.6454C134.418 61.5548 127.189 77.7238 130.997 92.2881Z" stroke="#263238" stroke-linecap="round" stroke-linejoin="round"/>
<path d="M166.439 102.409C165.785 106.528 165.431 110.688 165.381 114.858C165.592 119.072 166.862 120.341 164.957 120.764C163.053 121.188 160.955 118.225 160.955 118.225" stroke="#263238" stroke-linecap="round" stroke-linejoin="round"/>
<path d="M145.333 105.795C146.555 106.677 148.015 107.17 149.523 107.208C151.03 107.246 152.514 106.827 153.778 106.006" stroke="#263238" stroke-linecap="round" stroke-linejoin="round"/>
<path d="M172.134 105.795C173.353 106.676 174.811 107.168 176.315 107.205C177.819 107.243 179.3 106.825 180.562 106.006" stroke="#263238" stroke-linecap="round" stroke-linejoin="round"/>
<path d="M158.804 98.6887C158.804 98.6887 154.784 88.7617 141.506 93.399" stroke="#263238" stroke-linecap="round" stroke-linejoin="round"/>
<path d="M169.859 97.472C169.859 97.472 173.227 87.7566 185.252 93.4518" stroke="#263238" stroke-linecap="round" stroke-linejoin="round"/>
<path d="M161.36 106.517C161.36 111.948 155.136 116.339 147.448 116.339C139.761 116.339 133.519 111.948 133.519 106.517C133.519 101.087 139.338 98.8297 147.025 98.8297C154.713 98.8297 161.36 101.104 161.36 106.517Z" stroke="#263238" stroke-linecap="round" stroke-linejoin="round"/>
<path d="M193.434 106.517C193.434 111.948 187.192 116.339 179.504 116.339C171.816 116.339 165.592 111.948 165.592 106.517C165.592 101.087 171.393 98.8297 179.081 98.8297C186.769 98.8297 193.434 101.104 193.434 106.517Z" stroke="#263238" stroke-linecap="round" stroke-linejoin="round"/>
<path d="M180.862 36.6049C182.96 36.1641 187.457 34.4361 190.489 27.4008C190.536 27.2943 190.561 27.1797 190.563 27.0635C190.566 26.9472 190.545 26.8317 190.502 26.7235C190.46 26.6154 190.396 26.5167 190.315 26.4332C190.234 26.3497 190.138 26.2831 190.031 26.237C189.815 26.1475 189.573 26.1453 189.356 26.2308C189.139 26.3164 188.964 26.483 188.867 26.6955C186.081 33.149 182.096 34.5772 180.439 34.8946C183.405 31.305 185.043 26.8026 185.076 22.1463C185.076 9.90943 173.738 0 159.756 0C145.773 0 134.436 9.90943 134.436 22.1463C134.445 26.6149 135.933 30.9547 138.668 34.489C136.005 34.348 131.509 35.4765 125.814 42.1239C125.651 42.2916 125.56 42.5161 125.56 42.7498C125.56 42.9835 125.651 43.208 125.814 43.3758C125.977 43.5116 126.183 43.5864 126.395 43.5874C126.524 43.5875 126.65 43.5591 126.766 43.5042C126.882 43.4493 126.984 43.3693 127.065 43.27C134.348 34.7888 139.161 36.217 140.131 36.6049C138.485 37.5105 136.942 38.5924 135.529 39.8317C127.4 47.1491 122.446 60.9906 123.081 72.5222C123.794 80.1704 126.567 87.4824 131.103 93.6811C137.007 89.4559 141.903 83.9763 145.438 77.6356C148.073 72.978 150.429 68.1676 152.491 63.2299C152.491 68.3962 153.161 74.6381 155.877 79.0991C157.836 82.6227 160.705 85.5553 164.186 87.5901C167.666 89.6249 171.629 90.6872 175.66 90.6659C177.052 90.6859 178.442 90.5499 179.804 90.2604C179.924 90.2305 180.036 90.1758 180.133 90.0998C180.23 90.0239 180.31 89.9284 180.368 89.8196C187.174 91.2654 193.945 91.142 194.986 89.6962C196.661 87.3863 199.041 80.1747 199.834 71.3584C201.28 56.4061 191.865 43.4287 180.862 36.6049ZM157.517 78.0235C154.096 72.434 154.202 63.318 154.607 58.0812L154.837 57.4817C154.999 62.8678 156.372 68.1481 158.854 72.9312C161.335 77.7143 164.862 81.8773 169.172 85.1117C171.553 86.7573 174.193 87.9912 176.983 88.7616C172.663 89.0614 163.776 88.2327 157.517 78.0235Z" fill="#263238"/>
<path d="M157.816 50.2701C157.816 50.2701 156.371 60.9553 169.947 71.429C183.524 81.9026 196.396 77.7766 196.396 77.7766" stroke="#E1E1E6" stroke-width="0.5" stroke-linecap="round" stroke-linejoin="round"/>
<path d="M159.809 46.7436C159.809 46.7436 174.109 67.5675 193.857 62.1367" stroke="#E1E1E6" stroke-width="0.5" stroke-linecap="round" stroke-linejoin="round"/>
<path d="M152.738 39.8141C150.483 38.669 147.957 38.1654 145.435 38.3582C142.913 38.551 140.493 39.4327 138.438 40.9073C130.839 45.9678 127.03 57.9225 127.03 57.9225" stroke="#E1E1E6" stroke-width="0.5" stroke-linecap="round" stroke-linejoin="round"/>
<path d="M153.109 45.6151C153.109 45.6151 146.955 43.9752 143.146 47.7838C141.29 49.466 139.702 51.4223 138.438 53.5849" stroke="#E1E1E6" stroke-width="0.5" stroke-linecap="round" stroke-linejoin="round"/>
<path d="M23.9263 270.854L23.0258 462.271C23.0258 462.874 23.3046 463.453 23.8009 463.879C24.2972 464.305 24.9704 464.545 25.6723 464.545C26.3568 464.545 27.0144 464.316 27.5052 463.906C27.996 463.496 28.2813 462.938 28.3005 462.35L34.6596 271.123L23.9263 270.854Z" fill="#E1E1E6" stroke="#263238" stroke-linecap="round" stroke-linejoin="round"/>
<path d="M10.062 315.308L9.27673 513.077C9.27451 513.376 9.33522 513.672 9.45534 513.949C9.57547 514.225 9.75262 514.477 9.97647 514.688C10.2003 514.9 10.4664 515.067 10.7593 515.18C11.0522 515.294 11.3661 515.351 11.6827 515.349C12.3038 515.35 12.901 515.123 13.3495 514.717C13.7979 514.311 14.0628 513.757 14.0886 513.171L19.8529 315.56L10.062 315.308Z" fill="#E1E1E6" stroke="#263238" stroke-linecap="round" stroke-linejoin="round"/>
<path d="M311.994 270.854L312.814 462.271C312.816 462.569 312.756 462.865 312.637 463.14C312.517 463.416 312.341 463.667 312.119 463.878C311.897 464.089 311.632 464.257 311.341 464.372C311.049 464.486 310.737 464.545 310.421 464.545C309.796 464.545 309.195 464.317 308.746 463.907C308.296 463.498 308.033 462.939 308.011 462.35L302.238 271.123L311.994 270.854Z" fill="#E1E1E6" stroke="#263238" stroke-linecap="round" stroke-linejoin="round"/>
<path d="M325.744 315.308L326.563 513.077C326.565 513.376 326.504 513.672 326.384 513.949C326.264 514.225 326.087 514.477 325.863 514.688C325.639 514.9 325.373 515.067 325.08 515.18C324.787 515.294 324.474 515.351 324.157 515.349C323.538 515.349 322.942 515.123 322.496 514.716C322.051 514.31 321.789 513.756 321.768 513.171L315.987 315.56L325.744 315.308Z" fill="#E1E1E6" stroke="#263238" stroke-linecap="round" stroke-linejoin="round"/>
<path d="M108.106 323.775L107.646 498.66C107.596 499.097 107.718 499.535 107.987 499.884C108.256 500.233 108.65 500.465 109.088 500.531C109.514 500.472 109.903 500.254 110.173 499.921C110.444 499.588 110.577 499.166 110.545 498.739L113.981 323.98L108.106 323.775Z" fill="#E1E1E6" stroke="#263238" stroke-linecap="round" stroke-linejoin="round"/>
<path d="M228.75 317.425L229.254 471.426C229.297 471.799 229.17 472.171 228.899 472.466C228.628 472.762 228.235 472.957 227.8 473.012C227.366 472.957 226.974 472.761 226.706 472.465C226.439 472.17 226.316 471.797 226.364 471.426L222.916 317.552L228.75 317.425Z" fill="#E1E1E6" stroke="#263238" stroke-linecap="round" stroke-linejoin="round"/>
<path d="M106.066 317.425L106.57 471.426C106.613 471.799 106.486 472.171 106.215 472.466C105.944 472.762 105.551 472.957 105.116 473.012C104.682 472.957 104.29 472.761 104.022 472.465C103.755 472.17 103.632 471.797 103.68 471.426L100.232 317.552L106.066 317.425Z" fill="#E1E1E6" stroke="#263238" stroke-linecap="round" stroke-linejoin="round"/>
<path d="M225.503 323.775L226.076 498.66C226.135 499.097 225.992 499.535 225.679 499.884C225.365 500.233 224.905 500.465 224.395 500.531C223.899 500.469 223.448 500.25 223.133 499.918C222.818 499.586 222.662 499.165 222.695 498.739L218.686 323.98L225.503 323.775Z" fill="#E1E1E6" stroke="#263238" stroke-linecap="round" stroke-linejoin="round"/>
<path d="M165.706 337C207.93 337 242.158 329.227 242.158 319.638C242.158 310.049 207.93 302.276 165.706 302.276C123.483 302.276 89.2546 310.049 89.2546 319.638C89.2546 329.227 123.483 337 165.706 337Z" fill="#E1E1E6" stroke="#263238" stroke-linecap="round" stroke-linejoin="round"/>
<path d="M128.477 467.018C128.477 467.018 124.474 472.72 127.343 475.554C130.212 478.388 133.064 477.261 132.772 480.112C132.48 482.963 127.91 492.626 123.907 502.869C119.904 513.112 128.202 523.355 135.933 520.521C143.664 517.687 142.805 489.212 143.939 484.09C145.073 478.969 145.949 478.115 145.657 473.284C145.365 468.452 145.09 463.331 141.362 462.75C137.634 462.17 130.195 465.038 128.477 467.018Z" fill="#E1E1E6" stroke="#263238" stroke-linecap="round" stroke-linejoin="round"/>
<path d="M140.761 512.668C135.607 510.722 127.704 511.115 123.254 511.559C124.749 517.995 130.47 522.519 135.933 520.521C138.218 519.685 139.713 516.646 140.761 512.668Z" fill="#61DCFB" stroke="#263238" stroke-linecap="round" stroke-linejoin="round"/>
<path d="M119.612 454.505C119.612 454.505 127.91 468.452 130.195 472.14C132.48 475.827 140.228 474.701 141.087 469.579C141.946 464.458 137.926 450.237 137.926 450.237L120.746 454.505H119.612Z" fill="#E1E1E6" stroke="#263238" stroke-linecap="round" stroke-linejoin="round"/>
<path d="M99.8549 432.312C99.8549 432.312 97.5528 436.016 98.7038 438.577C99.8549 441.138 102.999 448.53 105.009 452.234C107.019 455.939 116.176 458.21 126.759 456.502C137.342 454.795 143.372 449.947 143.664 445.679C143.956 441.411 141.946 435.726 140.503 428.897C139.06 422.069 135.349 422.359 130.195 422.359C125.041 422.359 104.15 428.334 99.8549 432.312Z" fill="#61DCFB" stroke="#263238" stroke-linecap="round" stroke-linejoin="round"/>
<path d="M130.779 348.66C130.934 341.661 135.005 338.212 135.315 333.415C135.799 327.073 135.272 320.695 133.751 314.516L125.917 303.881C103.377 304.171 87.2274 304.547 86.9697 304.632C86.1107 304.905 85.5265 309.753 84.9596 313.731C84.9596 313.731 75.3902 314.943 77.1082 341.404C77.3488 345.092 87.0041 387.754 87.7084 392.62C92.0035 422.342 101.573 437.228 101.573 437.228C101.573 437.228 102.432 440.933 113.599 440.079C124.766 439.226 135.933 431.834 135.933 431.834C135.933 431.834 130.195 373.977 130.779 348.66Z" fill="#263238" stroke="#263238" stroke-linecap="round" stroke-linejoin="round"/>
<path d="M104.425 314.516C111.966 314.902 119.449 316.046 126.759 317.931C136.5 320.782 153.68 326.467 157.683 326.467C161.686 326.467 160.552 311.665 160.552 308.832C160.552 305.998 109.012 304.273 102.707 304.273C96.4016 304.273 104.425 314.516 104.425 314.516Z" fill="#E1E1E6" stroke="#263238" stroke-linecap="round" stroke-linejoin="round"/>
<path d="M160.552 308.832C160.552 308.832 155.965 311.102 154.247 319.638C152.529 328.174 150.244 332.732 153.68 335.003C157.116 337.273 172.012 338.98 174.296 336.71C176.581 334.439 182.887 323.052 184.038 315.66C185.189 308.268 160.552 308.832 160.552 308.832Z" fill="#61DCFB" stroke="#263238" stroke-linecap="round" stroke-linejoin="round"/>
<path d="M180.018 311.665C177.355 314.702 175.228 318.166 173.73 321.908C172.515 325.826 171.557 329.818 170.861 333.859C176.342 335.352 181.7 337.258 186.89 339.561C196.064 343.538 211.526 346.389 226.404 349.804C241.282 353.218 245.302 356.632 250.456 356.632C255.61 356.632 261.916 352.638 269.939 342.975C277.962 333.312 271.073 312.809 263.067 306.544C255.061 300.279 212.093 295.174 206.372 296.881C200.651 298.589 180.018 311.665 180.018 311.665Z" fill="#263238" stroke="#263238" stroke-linecap="round" stroke-linejoin="round"/>
<path d="M129.903 336.181C129.903 336.181 123.993 399.022 111.932 408.804" stroke="#49606B" stroke-width="0.5" stroke-linecap="round" stroke-linejoin="round"/>
<path d="M125.728 395.829C125.728 395.829 121.038 416.315 108.737 424.459" stroke="#49606B" stroke-width="0.5" stroke-linecap="round" stroke-linejoin="round"/>
<path d="M201.785 324.76C201.785 324.76 183.454 325.903 195.48 333.859C207.506 341.814 229.273 346.953 229.273 346.953" stroke="#49606B" stroke-width="0.5" stroke-linecap="round" stroke-linejoin="round"/>
<path d="M334.863 307.466L328.678 301.934L314.384 271.205C313.706 269.807 312.641 268.63 311.315 267.811C309.988 266.991 308.455 266.564 306.893 266.579H29.2614C27.6968 266.561 26.1596 266.987 24.8298 267.806C23.5001 268.626 22.433 269.805 21.7537 271.205L3.9378 309.48L1 308.405V317.162L1.13744 317.06C1.31244 318.228 1.90924 319.294 2.81651 320.057C3.72378 320.82 4.87954 321.23 6.06815 321.208H330.069C331.321 321.237 332.535 320.781 333.455 319.937C334.375 319.093 334.929 317.927 335 316.684L334.863 307.466Z" fill="#5E5E61" stroke="#263238" stroke-linecap="round" stroke-linejoin="round"/>
<path d="M330.069 313.202H6.06831C5.26596 313.234 4.46864 313.062 3.75113 312.704C3.03361 312.346 2.41941 311.812 1.9661 311.154C1.51279 310.495 1.23521 309.733 1.15942 308.939C1.08362 308.144 1.21208 307.344 1.53274 306.612L21.7538 263.199C22.4298 261.795 23.4961 260.614 24.8266 259.794C26.1571 258.974 27.6961 258.55 29.2616 258.572H306.893C308.456 258.554 309.991 258.979 311.318 259.799C312.646 260.618 313.709 261.798 314.384 263.199L334.605 306.612C334.926 307.344 335.054 308.144 334.978 308.939C334.903 309.733 334.625 310.495 334.172 311.154C333.718 311.812 333.104 312.346 332.387 312.704C331.669 313.062 330.872 313.234 330.069 313.202Z" fill="#E1E1E6" stroke="#263238" stroke-linecap="round" stroke-linejoin="round"/>
<g style="mix-blend-mode:multiply" opacity="0.5">
<path d="M22.4752 284.043C22.4752 284.043 15.1393 289.045 19.7264 290.872C24.3135 292.699 77.0395 291.333 83.4649 289.506C89.8903 287.68 97.209 270.83 97.209 268.098C97.209 265.367 87.9661 263.403 84.5644 263.25C81.1627 263.096 36.2194 265.811 36.2194 265.811L22.4752 284.043Z" fill="#A8A8A8"/>
</g>
<g style="mix-blend-mode:multiply" opacity="0.5">
<path d="M284.748 292.699C295.128 292.699 303.543 289.229 303.543 284.948C303.543 280.668 295.128 277.197 284.748 277.197C274.368 277.197 265.953 280.668 265.953 284.948C265.953 289.229 274.368 292.699 284.748 292.699Z" fill="#A8A8A8"/>
</g>
<g style="mix-blend-mode:multiply" opacity="0.5">
<path d="M165.088 302.276C202.311 302.276 232.486 296.666 232.486 289.745C232.486 282.825 202.311 277.215 165.088 277.215C127.865 277.215 97.6901 282.825 97.6901 289.745C97.6901 296.666 127.865 302.276 165.088 302.276Z" fill="#A8A8A8"/>
</g>
<path d="M271.004 254.458C271.004 254.458 269.767 249.558 265.661 251.197C261.555 252.836 261.967 263.66 262.775 269.788C263.582 275.917 269.148 273.049 269.148 273.049V269.379C269.148 269.379 267.104 271.001 266.073 268.764C265.042 266.528 265.249 255.277 266.279 255.482C267.31 255.687 269.355 259.153 269.355 259.153C269.355 259.153 269.973 258.76 271.004 254.458Z" fill="#61DCFB" stroke="#263238" stroke-linecap="round" stroke-linejoin="round"/>
<path d="M268.049 255.277V282.114C268.049 285.272 275.35 287.833 284.37 287.833C293.389 287.833 300.674 285.272 300.674 282.114V255.277H268.049Z" fill="#61DCFB" stroke="#263238" stroke-linecap="round" stroke-linejoin="round"/>
<path d="M300.674 255.277C300.674 258.009 293.372 260.211 284.37 260.211C275.367 260.211 268.049 258.009 268.049 255.277C268.049 252.546 275.35 250.344 284.37 250.344C293.389 250.344 300.674 252.563 300.674 255.277Z" fill="#E1E1E6" stroke="#263238" stroke-linecap="round" stroke-linejoin="round"/>
<path d="M298.543 255.277C298.543 257.65 292.187 259.562 284.37 259.562C276.553 259.562 270.179 257.65 270.179 255.277C270.179 252.904 276.536 250.992 284.37 250.992C292.204 250.992 298.543 252.904 298.543 255.277Z" fill="#E1E1E6" stroke="#263238" stroke-linecap="round" stroke-linejoin="round"/>
<path d="M273.426 258.009C280.567 260.08 288.155 260.08 295.297 258.009C288.155 255.938 280.567 255.938 273.426 258.009Z" fill="#263238" stroke="#263238" stroke-linecap="round" stroke-linejoin="round"/>
<path d="M20.4479 267.535L20.6541 276.719L82.9322 277.334V266.715L20.4479 267.535Z" fill="#E1E1E6" stroke="#263238" stroke-linecap="round" stroke-linejoin="round"/>
<path d="M82.9323 277.334L91.9862 257.941V252.222L82.52 268.559L82.9323 277.334Z" fill="#E1E1E6" stroke="#263238" stroke-linecap="round" stroke-linejoin="round"/>
<path d="M20.4479 275.9L20.6541 285.102L82.9322 285.716V275.098L20.4479 275.9Z" fill="#E1E1E6" stroke="#263238" stroke-linecap="round" stroke-linejoin="round"/>
<path d="M82.9323 285.716L91.9862 266.306V260.587L82.52 276.924L82.9323 285.716Z" fill="#E1E1E6" stroke="#263238" stroke-linecap="round" stroke-linejoin="round"/>
<path d="M44.5002 244.249C44.5002 244.249 45.9434 241.398 43.8818 240.169C41.8201 238.94 39.5695 241.876 38.3326 242.815C37.0956 243.754 11.205 260.791 10.3804 263.455C9.55574 266.118 10.3804 271.991 15.9296 272.639C21.4788 273.288 26.4095 269.583 28.8835 268.969C31.3574 268.354 32.3195 268.149 32.3195 268.149L49.3794 245.273L44.5002 244.249Z" fill="#61DCFB" stroke="#263238" stroke-linecap="round" stroke-linejoin="round"/>
<path d="M15.9296 272.656C21.4788 273.271 26.4095 269.601 28.8834 268.986C31.3574 268.371 32.3195 268.167 32.3195 268.167L32.9379 267.33L16.9088 264.086C16.0374 263.271 14.917 262.767 13.7251 262.656C12.5332 262.545 11.3379 262.832 10.3288 263.472C9.5557 266.101 10.3804 272.025 15.9296 272.656Z" fill="#E1E1E6" stroke="#263238" stroke-linecap="round" stroke-linejoin="round"/>
<path d="M16.9603 264.121H65.0648C80.0803 264.121 84.5987 263.301 84.5987 263.301L93.8417 244.3C93.8417 244.3 64.6353 246.144 55.6157 245.529C51.8886 245.423 48.1767 245.012 44.5174 244.3L16.9603 264.121Z" fill="#61DCFB" stroke="#263238" stroke-linecap="round" stroke-linejoin="round"/>
<path d="M16.9603 264.121L17.785 267.791C17.785 267.791 56.8355 267.996 67.1093 267.996C77.383 267.996 85.2 268.406 85.2 268.406L84.5815 263.284L16.9603 264.121Z" fill="#E1E1E6" stroke="#263238" stroke-linecap="round" stroke-linejoin="round"/>
<path d="M85.1999 268.354L93.8244 248.739V244.249L84.5814 263.25L85.1999 268.354Z" fill="#E1E1E6" stroke="#263238" stroke-linecap="round" stroke-linejoin="round"/>
<path d="M223.947 291.299H106.177C105.916 291.301 105.657 291.252 105.416 291.154C105.174 291.057 104.954 290.912 104.769 290.73C104.584 290.547 104.437 290.33 104.336 290.091C104.236 289.851 104.184 289.595 104.184 289.336C104.184 289.076 104.236 288.82 104.336 288.58C104.437 288.341 104.584 288.124 104.769 287.941C104.954 287.759 105.174 287.614 105.416 287.517C105.657 287.419 105.916 287.37 106.177 287.372H223.947C224.207 287.37 224.465 287.419 224.706 287.517C224.947 287.615 225.165 287.759 225.349 287.942C225.533 288.125 225.679 288.342 225.777 288.582C225.876 288.821 225.925 289.077 225.923 289.336C225.925 289.594 225.876 289.85 225.777 290.09C225.679 290.329 225.533 290.546 225.349 290.729C225.165 290.912 224.947 291.056 224.706 291.154C224.465 291.252 224.207 291.301 223.947 291.299Z" fill="#161E22" stroke="#263238" stroke-linecap="round" stroke-linejoin="round"/>
<path d="M225.081 287.338H105.301C104.863 287.339 104.441 287.173 104.121 286.875C103.802 286.576 103.609 286.168 103.583 285.733L97.0716 207.971C97.0423 207.731 97.065 207.487 97.1381 207.255C97.2112 207.024 97.3331 206.81 97.4957 206.63C97.6582 206.449 97.8577 206.304 98.0808 206.206C98.3039 206.108 98.5456 206.058 98.7896 206.059H231.61C231.854 206.058 232.095 206.108 232.318 206.206C232.542 206.304 232.741 206.449 232.904 206.63C233.066 206.81 233.188 207.024 233.261 207.255C233.334 207.487 233.357 207.731 233.328 207.971L226.816 285.733C226.79 286.171 226.595 286.582 226.272 286.881C225.949 287.179 225.522 287.343 225.081 287.338Z" fill="#161E22" stroke="#263238" stroke-linecap="round" stroke-linejoin="round"/>
<path d="M293.407 187.298C295.244 185.873 296.535 183.867 297.066 181.613C297.452 179.922 297.411 178.162 296.946 176.491" stroke="#6C7D85" stroke-linecap="round" stroke-linejoin="round"/>
<path d="M279.697 248.176C279.697 248.176 291.122 241.347 287.394 233.545C283.666 225.743 271.055 220.571 271.055 208.415C271.055 197.933 282.274 194.058 289.593 189.858" stroke="#6C7D85" stroke-linecap="round" stroke-linejoin="round"/>
<path d="M290.246 247.954C290.246 247.954 296.619 243.737 296.619 237.045C296.619 232.555 291.792 229.619 285.418 222.397" stroke="#6C7D85" stroke-linecap="round" stroke-linejoin="round"/>
<path d="M281.897 218.027C281.897 218.027 277.72 214.766 280.797 208.637" stroke="#6C7D85" stroke-linecap="round" stroke-linejoin="round"/>
<path fill-rule="evenodd" clip-rule="evenodd" d="M177.213 242.296C182.626 243.933 186.157 246.572 186.157 249.357C186.157 252.133 182.644 254.772 177.265 256.408C178.523 261.841 177.976 266.168 175.538 267.556C174.966 267.882 174.306 268.036 173.577 268.036C171.192 268.036 168.068 266.374 164.911 263.477C161.753 266.391 158.629 268.07 156.244 268.07C155.515 268.07 154.855 267.916 154.292 267.59C151.845 266.202 151.29 261.867 152.539 256.417C147.126 254.78 143.595 252.141 143.595 249.357C143.595 246.58 147.108 243.95 152.504 242.305C151.246 236.872 151.793 232.545 154.231 231.157C154.803 230.832 155.463 230.677 156.192 230.677V230.669C158.577 230.669 161.701 232.331 164.858 235.227C168.016 232.314 171.14 230.635 173.525 230.635V230.643C174.242 230.644 174.898 230.799 175.46 231.123C177.907 232.511 178.462 236.847 177.213 242.296ZM173.517 232.545C171.712 232.55 169.062 233.972 166.238 236.564C167.461 237.823 168.676 239.263 169.847 240.848C171.799 241.054 173.656 241.371 175.356 241.782C175.547 240.917 175.703 240.068 175.798 239.263C176.198 235.99 175.686 233.445 174.506 232.777C174.237 232.631 173.916 232.554 173.517 232.554V232.545ZM163.479 236.572C160.651 233.993 157.987 232.58 156.192 232.58V232.588C155.792 232.588 155.454 232.657 155.194 232.811C154.023 233.488 153.519 236.033 153.927 239.306C154.031 240.103 154.179 240.934 154.378 241.791C156.079 241.371 157.935 241.054 159.896 240.848C161.05 239.263 162.264 237.832 163.479 236.572ZM173.69 247.026C174.141 245.886 174.54 244.747 174.861 243.641C173.725 243.367 172.536 243.144 171.304 242.965C171.73 243.616 172.155 244.284 172.554 244.97C172.962 245.655 173.335 246.34 173.69 247.026ZM168.797 256.04C169.517 255.02 170.211 253.924 170.888 252.767C171.539 251.644 172.137 250.496 172.684 249.348C172.137 248.2 171.539 247.06 170.879 245.938C170.203 244.79 169.5 243.701 168.78 242.682C167.496 242.579 166.186 242.519 164.876 242.519C163.557 242.519 162.247 242.579 160.954 242.69C160.234 243.71 159.54 244.807 158.864 245.963C158.213 247.086 157.606 248.234 157.068 249.382C157.614 250.53 158.213 251.67 158.872 252.793C159.549 253.941 160.252 255.029 160.972 256.049C162.256 256.151 163.566 256.211 164.876 256.211C166.195 256.211 167.505 256.151 168.797 256.04ZM174.888 255.063C174.558 253.949 174.159 252.801 173.69 251.653C173.335 252.338 172.962 253.032 172.562 253.718C172.163 254.412 171.738 255.089 171.313 255.749C172.554 255.569 173.751 255.337 174.888 255.063ZM162.481 258.054C163.28 259.056 164.086 259.973 164.893 260.795C165.691 259.973 166.498 259.056 167.279 258.054C166.49 258.096 165.683 258.114 164.867 258.114C164.06 258.114 163.262 258.088 162.481 258.054ZM154.882 255.072C156.018 255.346 157.207 255.569 158.439 255.749C158.013 255.097 157.597 254.429 157.189 253.744C156.781 253.058 156.408 252.373 156.053 251.687C155.602 252.827 155.203 253.966 154.882 255.072ZM167.262 240.66C166.463 239.657 165.657 238.74 164.85 237.918C164.052 238.74 163.245 239.657 162.464 240.66C163.253 240.617 164.06 240.6 164.876 240.6C165.683 240.6 166.481 240.625 167.262 240.66ZM157.181 244.995C157.58 244.301 158.005 243.624 158.43 242.965C157.189 243.144 155.992 243.376 154.855 243.641C155.185 244.755 155.584 245.903 156.053 247.052C156.408 246.366 156.781 245.681 157.181 244.995ZM145.521 249.357C145.521 250.702 147.507 252.398 150.578 253.692C151.333 254.009 152.149 254.301 153.008 254.566C153.493 252.895 154.135 251.156 154.934 249.374C154.127 247.583 153.476 245.835 152.982 244.156C152.14 244.421 151.325 244.704 150.578 245.021C147.507 246.306 145.521 248.011 145.521 249.357ZM153.953 259.45C153.554 262.723 154.066 265.268 155.246 265.937C155.506 266.082 155.836 266.159 156.226 266.168C158.031 266.168 160.686 264.746 163.514 262.149C162.291 260.89 161.076 259.45 159.905 257.865C157.953 257.659 156.096 257.342 154.396 256.931C154.205 257.796 154.049 258.645 153.953 259.45ZM174.558 265.902C175.729 265.225 176.232 262.681 175.824 259.407C175.729 258.611 175.573 257.779 175.373 256.914C173.673 257.334 171.816 257.651 169.856 257.856C168.702 259.442 167.487 260.873 166.273 262.132C169.101 264.711 171.764 266.125 173.56 266.125C173.959 266.125 174.298 266.056 174.558 265.902ZM176.761 254.558C177.603 254.292 178.418 254.009 179.165 253.692C182.236 252.407 184.222 250.702 184.231 249.357C184.231 248.011 182.244 246.315 179.173 245.021C178.41 244.704 177.594 244.413 176.735 244.147C176.25 245.818 175.608 247.557 174.809 249.339C175.616 251.13 176.267 252.878 176.761 254.558ZM168.832 249.357C168.832 251.519 167.057 253.272 164.867 253.272C162.677 253.272 160.902 251.519 160.902 249.357C160.902 247.194 162.677 245.441 164.867 245.441C167.057 245.441 168.832 247.194 168.832 249.357Z" fill="#61DCFB"/>
</svg>
